<svg xmlns="http://www.w3.org/2000/svg" viewBox="0 0 320 420">
  <defs>
    <linearGradient id="roof" x1="0" y1="0" x2="0" y2="1">
      <stop offset="0%" stop-color="#f46c5e"/>
      <stop offset="100%" stop-color="#c24a47"/>
    </linearGradient>
    <linearGradient id="walls" x1="0" y1="0" x2="0" y2="1">
      <stop offset="0%" stop-color="#9ed8e7"/>
      <stop offset="100%" stop-color="#6ab3c6"/>
    </linearGradient>
    <linearGradient id="door" x1="0" y1="0" x2="0" y2="1">
      <stop offset="0%" stop-color="#2f261d"/>
      <stop offset="100%" stop-color="#1f1812"/>
    </linearGradient>
  </defs>
  <rect x="146" y="300" width="28" height="120" rx="8" fill="#c69c6d"/>
  <path d="M40 320c-8 28 18 52 44 40 17-7 36-32 42-52" fill="none" stroke="#7aa348" stroke-width="12" stroke-linecap="round"/>
  <circle cx="76" cy="328" r="10" fill="#d45454"/>
  <circle cx="98" cy="344" r="8" fill="#d45454"/>
  <path d="M280 320c8 28-18 52-44 40-17-7-36-32-42-52" fill="none" stroke="#7aa348" stroke-width="12" stroke-linecap="round"/>
  <circle cx="244" cy="328" r="10" fill="#d45454"/>
  <circle cx="222" cy="344" r="8" fill="#d45454"/>
  <path d="M40 200 L160 80 L280 200 Z" fill="url(#roof)" stroke="#a3423e" stroke-width="10" stroke-linejoin="round"/>
  <rect x="70" y="160" width="180" height="180" rx="24" fill="url(#walls)" stroke="#35829b" stroke-width="10"/>
  <circle cx="160" cy="240" r="42" fill="url(#door)" stroke="#553622" stroke-width="8"/>
  <rect x="112" y="276" width="96" height="14" rx="7" fill="#c69c6d" stroke="#a06d3b" stroke-width="6"/>
  <path d="M104 200c0-26 20-46 46-46s46 20 46 46" fill="none" stroke="#fef2a0" stroke-width="10" stroke-linecap="round"/>
  <path d="M104 198c0-12 10-22 22-22" fill="none" stroke="#ffe484" stroke-width="6" stroke-linecap="round"/>
  <circle cx="118" cy="212" r="8" fill="#ffe98c"/>
  <path d="M204 212c10-4 20 4 18 14" fill="none" stroke="#ffe98c" stroke-width="6" stroke-linecap="round"/>
</svg>
